<svg xmlns="http://www.w3.org/2000/svg" viewBox="0 0 30 30" width="100%" height="100%">
    <path class="neon-svg--fill"
          d="M 5 4 A 1.0001 1.0001 0 1 0 5 6 L 25 6 A 1.0001 1.0001 0 1 0 25 4 L 5 4 z M 9 9 A 1.0001 1.0001 0 1 0 9 11 L 21 11 A 1.0001 1.0001 0 1 0 21 9 L 9 9 z M 5 14 A 1.0001 1.0001 0 1 0 5 16 L 25 16 A 1.0001 1.0001 0 1 0 25 14 L 5 14 z M 9 19 A 1.0001 1.0001 0 1 0 9 21 L 21 21 A 1.0001 1.0001 0 1 0 21 19 L 9 19 z M 5 24 A 1.0001 1.0001 0 1 0 5 26 L 25 26 A 1.0001 1.0001 0 1 0 25 24 L 5 24 z"></path>
</svg>
