<svg width="100%" height="100%" viewBox="0 0 1289 335"
     xmlns="http://www.w3.org/2000/svg" xml:space="preserve"
     style="fill-rule:evenodd;clip-rule:evenodd;stroke-miterlimit:2;">
    <path class="neon-svg--fill"
          stroke-linecap="square"
          d="M54.328,318.534c-4.431,-0 -8.081,-1.434 -10.948,-4.301c-2.867,-2.868 -4.301,-6.517 -4.301,-10.948l0,-274.873c0,-4.432 1.434,-8.081 4.301,-10.948c2.867,-2.868 6.517,-4.301 10.948,-4.301c4.692,-0 8.602,1.824 11.73,5.474l186.898,245.548l0,-235.773c0,-4.432 1.434,-8.081 4.301,-10.948c2.867,-2.868 6.517,-4.301 10.948,-4.301c4.171,-0 7.755,1.433 10.753,4.301c2.997,2.867 4.496,6.516 4.496,10.948l0,274.873c0,4.431 -1.499,8.08 -4.496,10.948c-2.998,2.867 -6.582,4.301 -10.753,4.301c-2.085,-0 -4.171,-0.391 -6.256,-1.173c-2.085,-0.782 -3.78,-2.086 -5.083,-3.91l-187.289,-245.548l0,235.382c0,4.431 -1.499,8.08 -4.496,10.948c-2.998,2.867 -6.582,4.301 -10.753,4.301Z"
          style="fill-rule:nonzero;"/>
    <path class="neon-svg--fill"
          stroke-linecap="square"
          d="M356.962,43.661c-4.171,-0 -7.755,-1.499 -10.752,-4.497c-2.998,-2.998 -4.497,-6.582 -4.497,-10.752c0,-4.432 1.499,-8.081 4.497,-10.948c2.997,-2.868 6.581,-4.301 10.752,-4.301l228.735,-0c4.171,-0 7.755,1.433 10.753,4.301c2.997,2.867 4.496,6.516 4.496,10.948c0,4.17 -1.499,7.754 -4.496,10.752c-2.998,2.998 -6.582,4.497 -10.753,4.497l-228.735,-0Zm33.235,137.632c-3.649,-0.261 -7.038,-1.825 -10.166,-4.692c-3.128,-2.868 -4.692,-6.517 -4.692,-10.948c0,-3.91 1.434,-7.299 4.301,-10.166c2.867,-2.868 6.386,-4.562 10.557,-5.083l162.265,-0c4.171,-0 7.755,1.498 10.753,4.496c2.997,2.998 4.496,6.582 4.496,10.753c0,4.431 -1.499,8.145 -4.496,11.143c-2.998,2.998 -6.582,4.497 -10.753,4.497l-162.265,-0Zm-33.235,137.241c-4.171,-0 -7.755,-1.434 -10.752,-4.301c-2.998,-2.868 -4.497,-6.517 -4.497,-10.948c0,-4.171 1.499,-7.755 4.497,-10.753c2.997,-2.998 6.581,-4.496 10.752,-4.496l228.735,-0c4.171,-0 7.755,1.498 10.753,4.496c2.997,2.998 4.496,6.582 4.496,10.753c0,4.431 -1.499,8.08 -4.496,10.948c-2.998,2.867 -6.582,4.301 -10.753,4.301l-228.735,-0Z"
          style="fill-rule:nonzero;"/>
    <circle class="neon-svg--fill" r="165" cx="790" cy="167.5"/>
    <path class="neon-svg--fill"
          stroke-linecap="square"
          d="M1018.14,318.534c-4.171,-0 -7.755,-1.499 -10.752,-4.497c-2.998,-2.998 -4.497,-6.582 -4.497,-10.752l0,-274.873c0,-4.171 1.499,-7.755 4.497,-10.753c2.997,-2.998 6.581,-4.496 10.752,-4.496l213.486,-0c4.171,-0 7.69,1.433 10.557,4.301c2.867,2.867 4.301,6.516 4.301,10.948l0,274.873c0,4.431 -1.434,8.08 -4.301,10.948c-2.867,2.867 -6.386,4.301 -10.557,4.301c-4.431,-0 -8.081,-1.434 -10.948,-4.301c-2.867,-2.868 -4.301,-6.517 -4.301,-10.948l0,-262.752l-182.988,-0l0,262.752c0,4.17 -1.499,7.754 -4.496,10.752c-2.998,2.998 -6.582,4.497 -10.753,4.497Z"
          style="fill-rule:nonzero;"/>
    </svg>
